<?xml version="1.0" encoding="UTF-8" standalone="no"?>
<svg
   xmlns:dc="http://purl.org/dc/elements/1.1/"
   xmlns:cc="http://creativecommons.org/ns#"
   xmlns:rdf="http://www.w3.org/1999/02/22-rdf-syntax-ns#"
   xmlns:svg="http://www.w3.org/2000/svg"
   xmlns="http://www.w3.org/2000/svg"
   xmlns:sodipodi="http://sodipodi.sourceforge.net/DTD/sodipodi-0.dtd"
   xmlns:inkscape="http://www.inkscape.org/namespaces/inkscape"
   version="1.1"
   id="svg2"
   xml:space="preserve"
   width="575.23999"
   height="129.75999"
   viewBox="0 0 575.23999 129.75999"
   sodipodi:docname="21368 Ameti Bautischler logo design_4_final_curved_17092021.eps"><metadata
     id="metadata8"><rdf:RDF><cc:Work
         rdf:about=""><dc:format>image/svg+xml</dc:format><dc:type
           rdf:resource="http://purl.org/dc/dcmitype/StillImage" /></cc:Work></rdf:RDF></metadata><defs
     id="defs6" /><sodipodi:namedview
     pagecolor="#ffffff"
     bordercolor="#666666"
     borderopacity="1"
     objecttolerance="10"
     gridtolerance="10"
     guidetolerance="10"
     inkscape:pageopacity="0"
     inkscape:pageshadow="2"
     inkscape:window-width="640"
     inkscape:window-height="480"
     id="namedview4" /><g
     id="g10"
     inkscape:groupmode="layer"
     inkscape:label="ink_ext_XXXXXX"
     transform="matrix(1.3333333,0,0,-1.3333333,0,129.76)"><g
       id="g12"
       transform="scale(0.1)"><path
         d="m 1163.02,344.719 h 18.13 v 7.793 h 13.76 v 30.347 l -32.1,-35.847 c 0,0 0.03,-0.852 0.21,-2.293"
         style="fill:#154122;fill-opacity:1;fill-rule:nonzero;stroke:none"
         id="path14" /><path
         d="M 186.426,223.176 0,22.0039 H 272.758 L 371.785,131.563 H 722.652 L 718.609,22.0039 h 241 32.344 368.637 c 150.21,0 259.75,88.9531 297.97,201.1721 H 186.426"
         style="fill:#5a3114;fill-opacity:1;fill-rule:nonzero;stroke:none"
         id="path16" /><path
         d="m 1194.91,402.148 -0.92,-1.027 0.92,0.734 z"
         style="fill:#231f20;fill-opacity:1;fill-rule:nonzero;stroke:none"
         id="path18" /><path
         d="m 1901.58,865.797 h -0.49 l -41.62,-129.258 h 82.75 z m 80.78,-252.149 -20.56,67.075 h -119.95 l -23.01,-67.075 h -71.98 l 116.04,325.098 h 78.83 l 114.56,-325.098 h -73.93"
         style="fill:#154122;fill-opacity:1;fill-rule:nonzero;stroke:none"
         id="path20" /><path
         d="m 2353,613.648 v 145.903 c 0,14.687 -3.43,26.597 -10.29,35.742 -6.86,9.133 -16,13.707 -27.42,13.707 -11.74,0 -21.47,-4.895 -29.12,-14.687 -7.68,-9.793 -11.52,-22.032 -11.52,-36.719 V 613.648 h -63.64 V 758.57 c 0,9.793 -0.66,17.785 -1.96,23.993 -1.31,6.199 -3.51,11.089 -6.61,14.687 -3.11,3.59 -7.1,6.117 -12,7.59 -4.89,1.469 -10.77,2.199 -17.62,2.199 -25.79,0 -38.68,-15.668 -38.68,-47 V 613.648 h -63.65 v 240.883 h 59.73 v -35.25 c 8.15,15.989 17.95,26.93 29.37,32.805 11.43,5.875 25.14,8.812 41.14,8.812 8.15,0 15.42,-0.66 21.78,-1.957 6.37,-1.308 12.07,-3.511 17.14,-6.613 5.05,-3.105 9.87,-7.098 14.45,-11.992 4.56,-4.898 9.13,-10.77 13.7,-17.625 6.53,13.379 15.18,23.086 25.95,29.129 10.78,6.035 23.82,9.058 39.17,9.058 12.07,0 23.17,-2.043 33.29,-6.117 10.11,-4.09 18.77,-9.797 25.95,-17.14 7.17,-7.344 12.82,-15.914 16.9,-25.703 4.08,-9.793 6.11,-20.243 6.11,-31.336 V 613.648 H 2353"
         style="fill:#154122;fill-opacity:1;fill-rule:nonzero;stroke:none"
         id="path22" /><path
         d="m 2599.26,757.594 c -0.32,8.812 -1.87,16.562 -4.65,23.254 -2.77,6.687 -6.44,12.238 -11.01,16.648 -4.57,4.402 -9.8,7.664 -15.67,9.789 -5.87,2.117 -11.92,3.184 -18.11,3.184 -12.74,0 -23.75,-4.653 -33.05,-13.957 -9.3,-9.301 -14.62,-22.274 -15.92,-38.918 z M 2498.9,717.445 c 0.98,-18.285 6.28,-32.808 15.91,-43.578 9.63,-10.769 22.27,-16.156 37.95,-16.156 10.44,0 19.66,2.367 27.65,7.098 8,4.734 13.14,11.339 15.43,19.828 h 65.61 c -7.52,-24.809 -20.57,-43.899 -39.17,-57.278 -18.6,-13.39 -40.81,-20.078 -66.59,-20.078 -80.29,0 -120.44,43.739 -120.44,131.215 0,18.602 2.61,35.414 7.83,50.43 5.22,15.008 12.81,27.91 22.77,38.679 9.96,10.77 22.1,19.012 36.48,24.723 14.35,5.707 30.84,8.57 49.44,8.57 37.22,0 65.36,-11.918 84.47,-35.742 19.09,-23.828 28.64,-59.73 28.64,-107.711 H 2498.9"
         style="fill:#154122;fill-opacity:1;fill-rule:nonzero;stroke:none"
         id="path24" /><path
         d="m 2821.04,772.281 h 59.25 v -68.547 c 0,-12.726 -1.89,-24.89 -5.64,-36.472 -3.75,-11.594 -9.63,-21.875 -17.62,-30.844 -8,-8.988 -18.12,-16.086 -30.36,-21.301 -12.23,-5.219 -26.85,-7.836 -43.81,-7.836 -17.63,0 -32.65,2.617 -45.05,7.836 -12.41,5.215 -22.61,12.242 -30.6,21.051 -8.01,8.812 -13.8,19.094 -17.38,30.848 -3.59,11.75 -5.38,24.152 -5.38,37.207 v 215.429 h 62.66 v -65.121 h 133.18 V 809.488 H 2747.11 V 710.59 c 0,-15.348 2.86,-27.172 8.57,-35.496 5.71,-8.328 15.1,-12.489 28.15,-12.489 12.74,0 22.11,4.079 28.16,12.243 6.03,8.156 9.05,19.746 9.05,34.761 v 62.672"
         style="fill:#154122;fill-opacity:1;fill-rule:nonzero;stroke:none"
         id="path26" /><path
         d="m 2904.77,613.648 v 240.883 h 63.65 V 613.648 Z m 0,269.77 v 59.242 h 63.65 v -59.242 h -63.65"
         style="fill:#154122;fill-opacity:1;fill-rule:nonzero;stroke:none"
         id="path28" /><path
         d="m 1908.43,309.531 c 15.67,0 27.91,4.414 36.73,13.223 8.81,8.809 13.21,19.902 13.21,33.293 0,14.363 -4.33,24.801 -12.97,31.336 -8.65,6.523 -20.65,9.797 -35.99,9.797 h -87.14 v -87.649 z m -86.16,213.473 V 452.5 h 85.67 c 27.42,0 41.13,11.746 41.13,35.254 0,12.391 -3.51,21.371 -10.53,26.926 -7.02,5.543 -18.53,8.324 -34.51,8.324 z m -65.62,-268.793 v 325.094 h 160.11 c 31.98,0 56.3,-7.914 72.95,-23.742 16.65,-15.836 24.97,-37.458 24.97,-64.872 0,-14.043 -3.76,-26.519 -11.26,-37.461 -7.52,-10.933 -16.98,-18.687 -28.4,-23.25 6.85,-2.617 13.3,-5.964 19.34,-10.039 6.04,-4.082 11.26,-9.304 15.67,-15.664 4.4,-6.367 7.91,-13.879 10.52,-22.531 2.61,-8.648 3.92,-18.848 3.92,-30.594 0,-29.707 -9.96,-53.293 -29.87,-70.754 -19.91,-17.46 -50.43,-26.187 -91.55,-26.187 h -146.4"
         style="fill:#154122;fill-opacity:1;fill-rule:nonzero;stroke:none"
         id="path30" /><path
         d="m 2183.59,372.207 c -3.26,-3.273 -8,-5.879 -14.2,-7.832 -6.2,-1.965 -15.18,-4.094 -26.93,-6.367 -18.28,-3.594 -30.84,-8.164 -37.7,-13.711 -6.85,-5.559 -10.28,-13.543 -10.28,-23.992 0,-17.953 10.28,-26.926 30.85,-26.926 8.15,0 15.74,1.387 22.76,4.16 7.02,2.774 13.06,6.524 18.13,11.262 5.04,4.722 9.13,10.281 12.23,16.648 3.1,6.356 4.65,13.137 4.65,20.313 z M 2188,254.211 c -1.96,6.199 -3.27,13.379 -3.92,21.543 -7.51,-8.496 -17.46,-15.266 -29.87,-20.324 -12.4,-5.047 -26.76,-7.586 -43.08,-7.586 -27.75,0 -48.07,6.121 -60.96,18.355 -12.89,12.246 -19.34,28.156 -19.34,47.746 0,17.293 2.77,31.082 8.32,41.368 5.55,10.285 13.22,18.359 23.02,24.238 9.79,5.871 21.46,10.195 35,12.969 13.54,2.773 28.32,5.3 44.31,7.585 16,2.286 26.77,5.305 32.32,9.067 5.55,3.75 8.32,9.859 8.32,18.355 0,7.832 -3.67,13.957 -11.01,18.364 -7.35,4.402 -17.22,6.609 -29.63,6.609 -14.68,0 -25.21,-3.273 -31.58,-9.797 -6.36,-6.531 -10.36,-15.176 -11.99,-25.945 h -59.24 c 0.32,12.402 2.36,23.816 6.11,34.277 3.75,10.438 9.8,19.414 18.12,26.926 8.33,7.5 19.17,13.289 32.56,17.383 13.38,4.082 29.7,6.117 48.96,6.117 18.93,0 35.01,-2.137 48.23,-6.371 13.21,-4.242 23.82,-10.363 31.83,-18.352 7.99,-8.008 13.78,-17.961 17.37,-29.875 3.59,-11.914 5.39,-25.379 5.39,-40.39 V 254.211 H 2188"
         style="fill:#154122;fill-opacity:1;fill-rule:nonzero;stroke:none"
         id="path32" /><path
         d="m 2429.37,254.211 v 33.777 c -16.33,-26.765 -41.3,-40.144 -74.91,-40.144 -12.08,0 -23.1,2.129 -33.05,6.367 -9.96,4.234 -18.52,10.281 -25.7,18.113 -7.19,7.832 -12.81,17.141 -16.9,27.91 -4.08,10.774 -6.12,22.84 -6.12,36.231 V 495.09 h 63.65 V 346.25 c 0,-30.027 13.55,-45.039 40.64,-45.039 16.32,0 28.64,5.137 36.97,15.422 8.32,10.281 12.48,23.418 12.48,39.414 V 495.09 h 63.16 V 254.211 h -60.22"
         style="fill:#154122;fill-opacity:1;fill-rule:nonzero;stroke:none"
         id="path34" /><path
         d="m 2651.65,412.844 h 59.24 v -68.547 c 0,-12.734 -1.88,-24.895 -5.63,-36.477 -3.75,-11.59 -9.63,-21.875 -17.63,-30.847 -8,-8.977 -18.11,-16.075 -30.35,-21.297 -12.24,-5.215 -26.86,-7.832 -43.82,-7.832 -17.63,0 -32.64,2.617 -45.05,7.832 -12.4,5.222 -22.6,12.246 -30.59,21.051 -8.01,8.82 -13.8,19.101 -17.39,30.851 -3.59,11.746 -5.38,24.149 -5.38,37.207 v 215.43 h 62.67 V 495.09 h 133.17 v -45.039 h -133.17 v -98.899 c 0,-15.351 2.85,-27.179 8.56,-35.5 5.72,-8.316 15.1,-12.476 28.16,-12.476 12.73,0 22.11,4.07 28.15,12.234 6.04,8.153 9.06,19.746 9.06,34.766 v 62.668"
         style="fill:#154122;fill-opacity:1;fill-rule:nonzero;stroke:none"
         id="path36" /><path
         d="M 2735.37,254.211 V 495.09 h 63.65 V 254.211 Z m 0,269.769 v 59.243 h 63.65 V 523.98 h -63.65"
         style="fill:#154122;fill-opacity:1;fill-rule:nonzero;stroke:none"
         id="path38" /><path
         d="m 2970.86,422.148 c -1.64,11.082 -5.8,19.168 -12.49,24.231 -6.69,5.055 -16.88,7.586 -30.59,7.586 -13.06,0 -22.94,-1.555 -29.62,-4.649 -6.7,-3.105 -10.04,-8.41 -10.04,-15.91 0,-6.531 3.34,-11.758 10.04,-15.672 6.68,-3.918 16.4,-7.668 29.13,-11.261 20.88,-5.868 38.51,-10.848 52.87,-14.93 14.37,-4.082 25.87,-8.898 34.52,-14.445 8.64,-5.555 14.85,-12.481 18.61,-20.809 3.75,-8.32 5.63,-19.504 5.63,-33.535 0,-21.543 -8.98,-39.414 -26.93,-53.613 -17.96,-14.2 -44.55,-21.297 -79.81,-21.297 -17.3,0 -32.97,1.961 -47,5.879 -14.04,3.914 -26.03,9.547 -35.99,16.89 -9.96,7.348 -17.62,16.153 -23,26.438 -5.39,10.285 -8.26,21.789 -8.58,34.512 h 65.61 c 0,-11.426 4.48,-20.235 13.46,-26.434 8.98,-6.203 20.65,-9.301 35.01,-9.301 12.07,0 22.44,1.867 31.09,5.625 8.65,3.75 12.98,9.555 12.98,17.387 0,8.805 -3.19,15.176 -9.55,19.09 -6.36,3.918 -16.08,7.343 -29.14,10.285 -23.49,5.215 -42.43,10.68 -56.78,16.402 -14.38,5.703 -25.55,11.992 -33.55,18.852 -8,6.851 -13.39,14.351 -16.15,22.515 -2.78,8.157 -4.16,17.297 -4.16,27.422 0,9.133 1.88,17.785 5.63,25.949 3.75,8.157 9.7,15.333 17.87,21.543 8.15,6.192 18.77,11.172 31.82,14.93 13.05,3.75 29.05,5.633 47.98,5.633 34.6,0 59.89,-7.02 75.89,-21.051 16,-14.043 24.8,-33.469 26.45,-58.262 h -61.21"
         style="fill:#154122;fill-opacity:1;fill-rule:nonzero;stroke:none"
         id="path40" /><path
         d="m 3271.48,341.355 c -1.64,-14.031 -5.64,-26.765 -12,-38.179 -6.36,-11.438 -14.45,-21.235 -24.23,-29.387 -9.8,-8.152 -20.98,-14.523 -33.55,-19.094 -12.56,-4.566 -26.19,-6.851 -40.88,-6.851 -16.32,0 -31.25,2.691 -44.79,8.074 -13.55,5.391 -25.21,13.547 -35.01,24.48 -9.79,10.942 -17.38,24.485 -22.76,40.649 -5.39,16.148 -8.09,35 -8.09,56.543 0,21.543 2.7,40.144 8.09,55.816 5.38,15.664 12.97,28.469 22.76,38.43 9.8,9.949 21.62,17.383 35.5,22.273 13.87,4.907 29.29,7.352 46.26,7.352 15.67,0 29.95,-2.137 42.84,-6.371 12.89,-4.242 24.15,-10.442 33.79,-18.598 9.62,-8.164 17.21,-17.957 22.76,-29.383 5.55,-11.425 8.81,-24.148 9.8,-38.183 h -64.14 c -1.64,12.402 -6.61,22.109 -14.93,29.129 -8.33,7.011 -18.53,10.531 -30.61,10.531 -6.86,0 -13.21,-1.156 -19.09,-3.43 -5.88,-2.285 -11.02,-6.125 -15.42,-11.504 -4.41,-5.39 -7.92,-12.566 -10.53,-21.543 -2.62,-8.984 -3.92,-20 -3.92,-33.046 0,-26.446 4.73,-46.028 14.2,-58.758 9.47,-12.727 20.39,-19.094 32.81,-19.094 12.4,0 23,3.426 31.82,10.281 8.81,6.856 13.87,16.809 15.18,29.863 h 64.14"
         style="fill:#154122;fill-opacity:1;fill-rule:nonzero;stroke:none"
         id="path42" /><path
         d="m 3441.86,254.211 v 149.324 c 0,18.281 -3.18,30.762 -9.54,37.461 -6.37,6.68 -16.9,10.039 -31.58,10.039 -7.84,0 -14.86,-1.562 -21.06,-4.656 -6.2,-3.109 -11.42,-7.348 -15.66,-12.727 -4.25,-5.39 -7.43,-11.593 -9.55,-18.601 -2.13,-7.035 -3.19,-14.621 -3.19,-22.778 V 254.211 h -63.64 v 329.012 h 63.64 V 463.762 c 2.29,5.211 5.79,10.191 10.53,14.929 4.73,4.727 10.2,8.731 16.41,12 6.19,3.254 13.04,5.872 20.55,7.832 7.51,1.954 15.35,2.938 23.51,2.938 24.8,0 44.96,-6.781 60.47,-20.32 15.5,-13.543 23.25,-32.403 23.25,-56.551 V 254.211 h -64.14"
         style="fill:#154122;fill-opacity:1;fill-rule:nonzero;stroke:none"
         id="path44" /><path
         d="m 3531.45,254.211 v 329.012 h 63.64 V 254.211 h -63.64"
         style="fill:#154122;fill-opacity:1;fill-rule:nonzero;stroke:none"
         id="path46" /><path
         d="m 3778.7,398.152 c -0.33,8.813 -1.88,16.567 -4.65,23.254 -2.78,6.692 -6.45,12.246 -11.02,16.649 -4.57,4.406 -9.79,7.668 -15.66,9.797 -5.88,2.121 -11.93,3.183 -18.12,3.183 -12.73,0 -23.75,-4.656 -33.04,-13.957 -9.31,-9.305 -14.62,-22.281 -15.92,-38.926 z m -100.37,-40.144 c 0.98,-18.289 6.28,-32.805 15.91,-43.574 9.63,-10.774 22.28,-16.164 37.95,-16.164 10.44,0 19.66,2.367 27.66,7.101 8,4.727 13.13,11.34 15.43,19.832 h 65.6 c -7.52,-24.812 -20.56,-43.902 -39.17,-57.281 -18.6,-13.391 -40.81,-20.078 -66.59,-20.078 -80.29,0 -120.44,43.738 -120.44,131.219 0,18.605 2.61,35.41 7.83,50.429 5.22,15.012 12.82,27.899 22.78,38.672 9.95,10.77 22.1,19.016 36.47,24.727 14.36,5.711 30.84,8.57 49.45,8.57 37.21,0 65.36,-11.922 84.46,-35.738 19.09,-23.836 28.64,-59.739 28.64,-107.715 h -165.98"
         style="fill:#154122;fill-opacity:1;fill-rule:nonzero;stroke:none"
         id="path48" /><path
         d="M 3863.89,254.211 V 495.09 h 59.73 v -28.879 c 5.21,8.152 10.68,14.519 16.4,19.094 5.71,4.566 11.59,8.074 17.62,10.523 6.05,2.442 12.16,3.996 18.37,4.649 6.19,0.656 12.56,0.984 19.09,0.984 h 8.32 V 436.34 c -5.87,0.984 -11.75,1.473 -17.62,1.473 -38.85,0 -58.27,-19.422 -58.27,-58.262 v -125.34 h -63.64"
         style="fill:#154122;fill-opacity:1;fill-rule:nonzero;stroke:none"
         id="path50" /><path
         d="m 4164.01,398.152 c -0.32,8.813 -1.88,16.567 -4.65,23.254 -2.77,6.692 -6.45,12.246 -11.02,16.649 -4.57,4.406 -9.79,7.668 -15.66,9.797 -5.88,2.121 -11.92,3.183 -18.11,3.183 -12.74,0 -23.75,-4.656 -33.05,-13.957 -9.31,-9.305 -14.62,-22.281 -15.92,-38.926 z m -100.36,-40.144 c 0.97,-18.289 6.28,-32.805 15.91,-43.574 9.62,-10.774 22.27,-16.164 37.94,-16.164 10.44,0 19.66,2.367 27.66,7.101 8,4.727 13.14,11.34 15.43,19.832 h 65.61 c -7.52,-24.812 -20.57,-43.902 -39.17,-57.281 -18.61,-13.391 -40.81,-20.078 -66.6,-20.078 -80.29,0 -120.44,43.738 -120.44,131.219 0,18.605 2.61,35.41 7.84,50.429 5.21,15.012 12.81,27.899 22.77,38.672 9.95,10.77 22.1,19.016 36.47,24.727 14.36,5.711 30.84,8.57 49.45,8.57 37.22,0 65.36,-11.922 84.46,-35.738 19.09,-23.836 28.64,-59.739 28.64,-107.715 h -165.97"
         style="fill:#154122;fill-opacity:1;fill-rule:nonzero;stroke:none"
         id="path52" /><path
         d="M 4250.67,254.211 V 495.09 h 63.65 V 254.211 Z m 0,269.769 v 59.243 h 63.65 V 523.98 h -63.65"
         style="fill:#154122;fill-opacity:1;fill-rule:nonzero;stroke:none"
         id="path54" /><path
         d="m 1817.25,69.6563 c 5.22,0 10.16,0.957 14.82,2.8632 4.66,1.9063 8.72,4.793 12.17,8.6797 3.46,3.8789 6.18,8.8594 8.16,14.9336 1.97,6.0622 2.96,13.2622 2.96,21.5902 0,16.664 -3.25,29.289 -9.74,37.902 -6.49,8.613 -15.95,12.922 -28.37,12.922 -12.43,0 -21.95,-4.309 -28.59,-12.922 -6.63,-8.613 -9.95,-21.238 -9.95,-37.902 0,-16.66 3.36,-28.8285 10.06,-36.5238 6.7,-7.6914 16.2,-11.5429 28.48,-11.5429 z m 69.87,-23.2891 c 0,-6.7695 -1.06,-12.9805 -3.17,-18.6328 -2.12,-5.6446 -5.09,-10.5078 -8.9,-14.6094 -3.81,-4.09375 -8.33,-7.30469 -13.55,-9.62891 C 1856.28,1.16016 1850.56,0 1844.35,0 c -5.79,0 -11.15,1.02344 -16.09,3.07422 -4.94,2.04297 -9.18,4.94141 -12.7,8.67188 -3.53,3.75 -6.29,8.2344 -8.27,13.4492 -1.97,5.2266 -2.96,10.9453 -2.96,17.1563 v 4.4453 c -17.65,2.4023 -31.16,9.5586 -40.55,21.4922 -9.39,11.9257 -14.08,28.6132 -14.08,50.0699 0,11.856 1.49,22.52 4.45,31.973 2.96,9.453 7.34,17.473 13.13,24.031 5.79,6.567 12.84,11.575 21.17,15.039 8.33,3.457 17.93,5.188 28.8,5.188 10.72,0 20.29,-1.731 28.69,-5.188 8.4,-3.464 15.42,-8.504 21.07,-15.144 5.64,-6.629 9.95,-14.719 12.91,-24.238 2.97,-9.532 4.45,-20.293 4.45,-32.297 0,-8.465 -1.17,-16.582 -3.5,-24.3441 -2.33,-7.7656 -5.71,-14.7578 -10.16,-20.9687 -4.45,-6.211 -9.95,-11.4336 -16.52,-15.6641 -6.56,-4.2344 -14.07,-6.9883 -22.54,-8.2617 0,-8.0469 1.41,-13.8672 4.23,-17.461 2.82,-3.6015 6.49,-5.3984 11.01,-5.3984 4.09,0 7.52,1.7266 10.27,5.1836 2.75,3.457 4.13,8.6445 4.13,15.5586 h 25.83"
         style="fill:#5a3114;fill-opacity:1;fill-rule:nonzero;stroke:none"
         id="path56" /><path
         d="m 1965.04,49.3359 v 14.6094 c -7.06,-11.5742 -17.86,-17.3633 -32.4,-17.3633 -5.22,0 -9.98,0.918 -14.29,2.7539 -4.31,1.836 -8.01,4.4414 -11.11,7.8321 -3.11,3.3867 -5.55,7.4101 -7.31,12.0703 -1.77,4.6562 -2.65,9.8828 -2.65,15.6719 v 68.5978 h 27.53 V 89.1406 c 0,-12.9883 5.85,-19.4843 17.57,-19.4843 7.06,0 12.39,2.2304 15.99,6.6718 3.6,4.4532 5.4,10.125 5.4,17.0508 v 60.1291 h 27.31 V 49.3359 h -26.04"
         style="fill:#5a3114;fill-opacity:1;fill-rule:nonzero;stroke:none"
         id="path58" /><path
         d="m 2069.63,100.359 c -1.41,-1.4059 -3.46,-2.5387 -6.13,-3.3863 -2.69,-0.8399 -6.57,-1.7579 -11.65,-2.7461 -7.91,-1.5625 -13.34,-3.5352 -16.3,-5.9375 -2.97,-2.3907 -4.45,-5.8594 -4.45,-10.3672 0,-7.7656 4.45,-11.6446 13.34,-11.6446 3.52,0 6.8,0.5977 9.84,1.7969 3.04,1.1914 5.65,2.8242 7.84,4.875 2.19,2.0391 3.95,4.4414 5.29,7.1953 1.34,2.7539 2.01,5.6758 2.01,8.7813 z m 1.91,-51.0231 c -0.85,2.6758 -1.41,5.793 -1.69,9.3164 -3.25,-3.6718 -7.56,-6.6015 -12.92,-8.789 -5.37,-2.1875 -11.57,-3.2813 -18.63,-3.2813 -12,0 -20.79,2.6446 -26.36,7.9375 -5.58,5.293 -8.37,12.1797 -8.37,20.6446 0,7.4804 1.2,13.4492 3.6,17.8906 2.4,4.457 5.72,7.9413 9.95,10.4923 4.24,2.539 9.29,4.402 15.14,5.601 5.86,1.204 12.25,2.297 19.17,3.282 6.91,0.988 11.57,2.297 13.97,3.918 2.4,1.621 3.6,4.265 3.6,7.937 0,3.391 -1.59,6.035 -4.77,7.942 -3.17,1.914 -7.44,2.863 -12.8,2.863 -6.36,0 -10.91,-1.418 -13.66,-4.242 -2.76,-2.821 -4.48,-6.563 -5.19,-11.219 h -25.62 c 0.14,5.371 1.02,10.301 2.65,14.824 1.62,4.52 4.23,8.399 7.83,11.649 3.6,3.246 8.29,5.746 14.08,7.511 5.79,1.77 12.84,2.649 21.18,2.649 8.18,0 15.14,-0.918 20.85,-2.754 5.72,-1.836 10.3,-4.485 13.76,-7.942 3.46,-3.457 5.97,-7.761 7.52,-12.91 1.55,-5.156 2.33,-10.976 2.33,-17.472 V 49.3359 h -25.62"
         style="fill:#5a3114;fill-opacity:1;fill-rule:nonzero;stroke:none"
         id="path60" /><path
         d="M 2112.4,49.3359 V 191.621 h 27.53 V 49.3359 h -27.53"
         style="fill:#5a3114;fill-opacity:1;fill-rule:nonzero;stroke:none"
         id="path62" /><path
         d="M 2155.6,49.3359 V 153.508 h 27.52 V 49.3359 Z m 0,116.6721 v 25.613 h 27.52 v -25.613 h -27.52"
         style="fill:#5a3114;fill-opacity:1;fill-rule:nonzero;stroke:none"
         id="path64" /><path
         d="m 2258.08,117.938 h 25.62 V 88.2891 c 0,-5.4961 -0.81,-10.7618 -2.44,-15.7696 -1.62,-5.0078 -4.17,-9.4531 -7.62,-13.3398 -3.46,-3.8867 -7.83,-6.9531 -13.13,-9.207 -5.29,-2.2579 -11.61,-3.3907 -18.94,-3.3907 -7.63,0 -14.12,1.1328 -19.49,3.3907 -5.37,2.2539 -9.77,5.289 -13.23,9.0976 -3.46,3.8203 -5.96,8.2656 -7.52,13.3399 -1.55,5.0898 -2.33,10.4492 -2.33,16.0976 v 93.1642 h 27.11 v -28.164 h 57.59 v -19.477 h -57.59 V 91.2617 c 0,-6.6445 1.23,-11.75 3.7,-15.3554 2.47,-3.6016 6.53,-5.3985 12.18,-5.3985 5.5,0 9.56,1.7656 12.17,5.293 2.61,3.5234 3.92,8.5469 3.92,15.039 v 27.0982"
         style="fill:#5a3114;fill-opacity:1;fill-rule:nonzero;stroke:none"
         id="path66" /><path
         d="m 2350.6,171.934 v 26.25 h 27.53 v -26.25 z m 10.6,-71.575 c -1.42,-1.4059 -3.47,-2.5387 -6.15,-3.3863 -2.68,-0.8399 -6.56,-1.7579 -11.65,-2.7461 -7.9,-1.5625 -13.34,-3.5352 -16.3,-5.9375 -2.96,-2.3907 -4.45,-5.8594 -4.45,-10.3672 0,-7.7656 4.45,-11.6446 13.34,-11.6446 3.54,0 6.82,0.5977 9.85,1.7969 3.03,1.1914 5.65,2.8242 7.84,4.875 2.18,2.0391 3.94,4.4414 5.29,7.1953 1.34,2.7539 2.01,5.6758 2.01,8.7813 z m -52.94,71.575 v 26.25 h 27.53 v -26.25 z M 2363.1,49.3359 c -0.85,2.6758 -1.42,5.793 -1.7,9.3164 -3.24,-3.6718 -7.55,-6.6015 -12.91,-8.789 -5.37,-2.1875 -11.58,-3.2813 -18.63,-3.2813 -12,0 -20.79,2.6446 -26.37,7.9375 -5.58,5.293 -8.36,12.1797 -8.36,20.6446 0,7.4804 1.19,13.4492 3.6,17.8906 2.4,4.457 5.72,7.9413 9.95,10.4923 4.23,2.539 9.28,4.402 15.14,5.601 5.85,1.204 12.25,2.297 19.16,3.282 6.92,0.988 11.58,2.297 13.98,3.918 2.4,1.621 3.6,4.265 3.6,7.937 0,3.391 -1.59,6.035 -4.76,7.942 -3.19,1.914 -7.46,2.863 -12.82,2.863 -6.35,0 -10.91,-1.418 -13.66,-4.242 -2.74,-2.821 -4.48,-6.563 -5.18,-11.219 h -25.62 c 0.14,5.371 1.03,10.301 2.65,14.824 1.62,4.52 4.23,8.399 7.83,11.649 3.6,3.246 8.29,5.746 14.08,7.511 5.78,1.77 12.84,2.649 21.17,2.649 8.19,0 15.14,-0.918 20.86,-2.754 5.71,-1.836 10.3,-4.485 13.76,-7.942 3.46,-3.457 5.97,-7.761 7.52,-12.91 1.55,-5.156 2.33,-10.976 2.33,-17.472 V 49.3359 h -25.62"
         style="fill:#5a3114;fill-opacity:1;fill-rule:nonzero;stroke:none"
         id="path68" /><path
         d="m 2463.03,117.938 h 25.62 V 88.2891 c 0,-5.4961 -0.81,-10.7618 -2.43,-15.7696 -1.63,-5.0078 -4.16,-9.4531 -7.62,-13.3398 -3.47,-3.8867 -7.84,-6.9531 -13.14,-9.207 -5.29,-2.2579 -11.61,-3.3907 -18.94,-3.3907 -7.63,0 -14.12,1.1328 -19.48,3.3907 -5.37,2.2539 -9.78,5.289 -13.24,9.0976 -3.45,3.8203 -5.96,8.2656 -7.52,13.3399 -1.55,5.0898 -2.32,10.4492 -2.32,16.0976 v 93.1642 h 27.1 v -28.164 h 57.59 v -19.477 h -57.59 V 91.2617 c 0,-6.6445 1.23,-11.75 3.7,-15.3554 2.47,-3.6016 6.53,-5.3985 12.18,-5.3985 5.51,0 9.56,1.7656 12.18,5.293 2.6,3.5234 3.91,8.5469 3.91,15.039 v 27.0982"
         style="fill:#5a3114;fill-opacity:1;fill-rule:nonzero;stroke:none"
         id="path70" /><path
         d="m 2627.12,49.3359 v 14.6094 c -7.06,-11.5742 -17.86,-17.3633 -32.39,-17.3633 -5.22,0 -9.99,0.918 -14.3,2.7539 -4.3,1.836 -8,4.4414 -11.11,7.8321 -3.1,3.3867 -5.55,7.4101 -7.3,12.0703 -1.77,4.6562 -2.65,9.8828 -2.65,15.6719 v 68.5978 h 27.52 V 89.1406 c 0,-12.9883 5.86,-19.4843 17.58,-19.4843 7.06,0 12.38,2.2304 15.98,6.6718 3.61,4.4532 5.4,10.125 5.4,17.0508 v 60.1291 h 27.32 V 49.3359 h -26.05"
         style="fill:#5a3114;fill-opacity:1;fill-rule:nonzero;stroke:none"
         id="path72" /><path
         d="M 2735.1,49.3359 V 112.43 c 0,8.047 -1.34,13.476 -4.01,16.308 -2.69,2.825 -7.28,4.231 -13.77,4.231 -14.26,0 -21.39,-7.969 -21.39,-23.926 V 49.3359 h -27.52 V 153.508 h 26.25 v -15.246 c 3.25,5.926 7.55,10.41 12.92,13.449 5.36,3.035 12.28,4.551 20.75,4.551 4.94,0 9.53,-0.746 13.76,-2.219 4.24,-1.484 7.88,-3.711 10.91,-6.672 3.03,-2.969 5.43,-6.601 7.2,-10.906 1.76,-4.309 2.65,-9.285 2.65,-14.934 V 49.3359 h -27.75"
         style="fill:#5a3114;fill-opacity:1;fill-rule:nonzero;stroke:none"
         id="path74" /><path
         d="m 2827.43,69.0234 c 6.63,0 12.16,2.7539 16.62,8.2618 4.44,5.5078 6.67,12.7031 6.67,21.6015 0,22.5783 -7.7,33.8753 -23.09,33.8753 -15.81,0 -23.71,-10.731 -23.71,-32.188 0,-9.3123 2.19,-16.9021 6.56,-22.7615 4.38,-5.8594 10.02,-8.7891 16.95,-8.7891 z m 22.86,-19.6875 -0.21,12.7032 c -6.35,-10.3008 -16.02,-15.4571 -29.01,-15.4571 -6.63,0 -12.71,1.2696 -18.21,3.8086 -5.5,2.5469 -10.24,6.211 -14.18,11.0157 -3.96,4.7929 -7.06,10.6523 -9.32,17.5664 -2.27,6.9257 -3.39,14.7578 -3.39,23.5073 0,7.903 0.95,15.137 2.86,21.708 1.91,6.566 4.69,12.238 8.36,17.042 3.67,4.793 8.16,8.504 13.45,11.114 5.29,2.605 11.33,3.918 18.1,3.918 12.85,0 23.15,-5.434 30.91,-16.301 v 51.66 h 27.1 V 49.3359 h -26.46"
         style="fill:#5a3114;fill-opacity:1;fill-rule:nonzero;stroke:none"
         id="path76" /><path
         d="m 2943.88,49.3359 v 24.9805 l 73.05,91.0546 H 2946 v 24.559 h 107.77 V 166.848 L 2980.3,74.3164 h 73.47 V 49.3359 h -109.89"
         style="fill:#5a3114;fill-opacity:1;fill-rule:nonzero;stroke:none"
         id="path78" /><path
         d="m 3132.11,49.3359 v 14.6094 c -7.06,-11.5742 -17.86,-17.3633 -32.39,-17.3633 -5.22,0 -9.99,0.918 -14.3,2.7539 -4.3,1.836 -8,4.4414 -11.11,7.8321 -3.1,3.3867 -5.55,7.4101 -7.3,12.0703 -1.77,4.6562 -2.65,9.8828 -2.65,15.6719 v 68.5978 h 27.52 V 89.1406 c 0,-12.9883 5.86,-19.4843 17.58,-19.4843 7.06,0 12.38,2.2304 15.98,6.6718 3.61,4.4532 5.4,10.125 5.4,17.0508 v 60.1291 h 27.32 V 49.3359 h -26.05"
         style="fill:#5a3114;fill-opacity:1;fill-rule:nonzero;stroke:none"
         id="path80" /><path
         d="m 3205.8,49.3359 -37.27,104.1721 h 30.7 l 21.81,-68.8127 22.02,68.8127 h 29.01 L 3234.59,49.3359 h -28.79"
         style="fill:#5a3114;fill-opacity:1;fill-rule:nonzero;stroke:none"
         id="path82" /><path
         d="m 3344.69,111.582 c -0.14,3.816 -0.82,7.168 -2.01,10.059 -1.2,2.89 -2.79,5.293 -4.77,7.207 -1.98,1.906 -4.23,3.308 -6.77,4.226 -2.54,0.918 -5.16,1.379 -7.83,1.379 -5.51,0 -10.28,-2.012 -14.3,-6.035 -4.02,-4.023 -6.32,-9.629 -6.88,-16.836 z m -43.41,-17.3554 c 0.42,-7.9102 2.72,-14.1875 6.89,-18.8438 4.16,-4.6601 9.63,-6.9961 16.4,-6.9961 4.52,0 8.51,1.0274 11.97,3.0781 3.45,2.043 5.68,4.9024 6.67,8.5743 h 28.37 c -3.25,-10.7344 -8.89,-18.9844 -16.94,-24.7774 -8.04,-5.789 -17.64,-8.6797 -28.8,-8.6797 -34.72,0 -52.09,18.9141 -52.09,56.746 0,8.051 1.14,15.313 3.39,21.809 2.26,6.496 5.54,12.07 9.85,16.726 4.3,4.66 9.56,8.227 15.78,10.696 6.21,2.468 13.34,3.703 21.38,3.703 16.09,0 28.27,-5.16 36.53,-15.453 8.25,-10.313 12.38,-25.836 12.38,-46.5824 h -71.78"
         style="fill:#5a3114;fill-opacity:1;fill-rule:nonzero;stroke:none"
         id="path84" /><path
         d="M 3385.77,49.3359 V 153.508 h 25.83 v -12.492 c 2.25,3.523 4.62,6.281 7.09,8.261 2.47,1.973 5.01,3.496 7.62,4.551 2.61,1.055 5.26,1.727 7.94,2.012 2.68,0.281 5.43,0.422 8.25,0.422 h 3.61 v -28.157 c -2.54,0.418 -5.08,0.633 -7.63,0.633 -16.8,0 -25.19,-8.394 -25.19,-25.191 V 49.3359 h -27.52"
         style="fill:#5a3114;fill-opacity:1;fill-rule:nonzero;stroke:none"
         id="path86" /><path
         d="M 3456.69,49.3359 V 191.621 h 27.52 V 49.3359 h -27.52"
         style="fill:#5a3114;fill-opacity:1;fill-rule:nonzero;stroke:none"
         id="path88" /><path
         d="m 3551.97,171.934 v 26.25 h 27.53 v -26.25 z m 10.59,-71.575 c -1.41,-1.4059 -3.46,-2.5387 -6.14,-3.3863 -2.68,-0.8399 -6.56,-1.7579 -11.65,-2.7461 -7.9,-1.5625 -13.34,-3.5352 -16.3,-5.9375 -2.97,-2.3907 -4.45,-5.8594 -4.45,-10.3672 0,-7.7656 4.45,-11.6446 13.34,-11.6446 3.53,0 6.81,0.5977 9.85,1.7969 3.03,1.1914 5.65,2.8242 7.83,4.875 2.19,2.0391 3.95,4.4414 5.3,7.1953 1.33,2.7539 2.01,5.6758 2.01,8.7813 z m -52.94,71.575 v 26.25 h 27.53 v -26.25 z m 54.85,-122.5981 c -0.85,2.6758 -1.42,5.793 -1.7,9.3164 -3.24,-3.6718 -7.55,-6.6015 -12.91,-8.789 -5.37,-2.1875 -11.58,-3.2813 -18.63,-3.2813 -12.01,0 -20.8,2.6446 -26.37,7.9375 -5.58,5.293 -8.36,12.1797 -8.36,20.6446 0,7.4804 1.2,13.4492 3.59,17.8906 2.4,4.457 5.73,7.9413 9.95,10.4923 4.24,2.539 9.29,4.402 15.15,5.601 5.85,1.204 12.25,2.297 19.16,3.282 6.91,0.988 11.57,2.297 13.97,3.918 2.41,1.621 3.61,4.265 3.61,7.937 0,3.391 -1.59,6.035 -4.77,7.942 -3.18,1.914 -7.45,2.863 -12.81,2.863 -6.36,0 -10.91,-1.418 -13.66,-4.242 -2.75,-2.821 -4.48,-6.563 -5.19,-11.219 h -25.61 c 0.13,5.371 1.01,10.301 2.64,14.824 1.62,4.52 4.23,8.399 7.84,11.649 3.6,3.246 8.29,5.746 14.08,7.511 5.78,1.77 12.84,2.649 21.17,2.649 8.18,0 15.14,-0.918 20.86,-2.754 5.71,-1.836 10.3,-4.485 13.76,-7.942 3.46,-3.457 5.97,-7.761 7.52,-12.91 1.55,-5.156 2.32,-10.976 2.32,-17.472 V 49.3359 h -25.61"
         style="fill:#5a3114;fill-opacity:1;fill-rule:nonzero;stroke:none"
         id="path90" /><path
         d="m 3668.01,121.965 c -0.71,4.793 -2.51,8.289 -5.4,10.476 -2.9,2.188 -7.3,3.282 -13.23,3.282 -5.65,0 -9.92,-0.672 -12.81,-2.012 -2.9,-1.34 -4.35,-3.633 -4.35,-6.875 0,-2.832 1.45,-5.09 4.35,-6.777 2.89,-1.7 7.09,-3.321 12.59,-4.875 9.04,-2.539 16.66,-4.696 22.87,-6.454 6.21,-1.765 11.19,-3.847 14.93,-6.25 3.74,-2.402 6.42,-5.4019 8.04,-8.9956 1.63,-3.6016 2.44,-8.4336 2.44,-14.5117 0,-9.3164 -3.88,-17.0391 -11.64,-23.1836 -7.77,-6.1328 -19.27,-9.2071 -34.52,-9.2071 -7.49,0 -14.25,0.8477 -20.33,2.5391 -6.06,1.6992 -11.26,4.1328 -15.55,7.3047 -4.31,3.1836 -7.63,6.9922 -9.96,11.4336 -2.33,4.4453 -3.57,9.4258 -3.71,14.9336 h 28.37 c 0,-4.9414 1.95,-8.7617 5.83,-11.4375 3.88,-2.6836 8.93,-4.0196 15.14,-4.0196 5.22,0 9.71,0.8086 13.45,2.4297 3.74,1.6211 5.6,4.1289 5.6,7.5196 0,3.8086 -1.38,6.5625 -4.12,8.2617 -2.75,1.6875 -6.96,3.1758 -12.61,4.4414 -10.15,2.2578 -18.35,4.6211 -24.56,7.0898 -6.21,2.4727 -11.04,5.1879 -14.5,8.1559 -3.46,2.969 -5.79,6.211 -6.98,9.739 -1.2,3.523 -1.81,7.476 -1.81,11.863 0,3.945 0.81,7.684 2.44,11.219 1.62,3.527 4.2,6.633 7.73,9.316 3.52,2.68 8.11,4.836 13.76,6.457 5.64,1.621 12.57,2.434 20.75,2.434 14.96,0 25.91,-3.039 32.82,-9.106 6.92,-6.07 10.72,-14.472 11.44,-25.191 h -26.47"
         style="fill:#5a3114;fill-opacity:1;fill-rule:nonzero;stroke:none"
         id="path92" /><path
         d="m 3771.13,121.965 c -0.72,4.793 -2.51,8.289 -5.4,10.476 -2.9,2.188 -7.31,3.282 -13.24,3.282 -5.65,0 -9.92,-0.672 -12.81,-2.012 -2.9,-1.34 -4.34,-3.633 -4.34,-6.875 0,-2.832 1.44,-5.09 4.34,-6.777 2.89,-1.7 7.09,-3.321 12.6,-4.875 9.03,-2.539 16.65,-4.696 22.86,-6.454 6.21,-1.765 11.19,-3.847 14.93,-6.25 3.74,-2.402 6.43,-5.4019 8.05,-8.9956 1.62,-3.6016 2.43,-8.4336 2.43,-14.5117 0,-9.3164 -3.88,-17.0391 -11.64,-23.1836 -7.76,-6.1328 -19.27,-9.2071 -34.51,-9.2071 -7.49,0 -14.26,0.8477 -20.33,2.5391 -6.07,1.6992 -11.26,4.1328 -15.56,7.3047 -4.31,3.1836 -7.63,6.9922 -9.95,11.4336 -2.33,4.4453 -3.57,9.4258 -3.71,14.9336 h 28.37 c 0,-4.9414 1.94,-8.7617 5.83,-11.4375 3.87,-2.6836 8.92,-4.0196 15.13,-4.0196 5.23,0 9.71,0.8086 13.45,2.4297 3.74,1.6211 5.61,4.1289 5.61,7.5196 0,3.8086 -1.38,6.5625 -4.12,8.2617 -2.76,1.6875 -6.97,3.1758 -12.61,4.4414 -10.16,2.2578 -18.35,4.6211 -24.56,7.0898 -6.21,2.4727 -11.05,5.1879 -14.5,8.1559 -3.46,2.969 -5.8,6.211 -6.99,9.739 -1.2,3.523 -1.8,7.476 -1.8,11.863 0,3.945 0.81,7.684 2.44,11.219 1.62,3.527 4.2,6.633 7.72,9.316 3.53,2.68 8.12,4.836 13.76,6.457 5.65,1.621 12.57,2.434 20.75,2.434 14.97,0 25.91,-3.039 32.83,-9.106 6.91,-6.07 10.72,-14.472 11.43,-25.191 h -26.46"
         style="fill:#5a3114;fill-opacity:1;fill-rule:nonzero;stroke:none"
         id="path94" /><path
         d="M 3812.19,49.3359 V 153.508 h 27.52 V 49.3359 Z m 0,116.6721 v 25.613 h 27.52 v -25.613 h -27.52"
         style="fill:#5a3114;fill-opacity:1;fill-rule:nonzero;stroke:none"
         id="path96" /><path
         d="m 3905.57,70.0898 c 6.77,0 12.38,2.5665 16.83,7.7227 4.45,5.1563 6.67,12.1758 6.67,21.0742 0,22.2933 -7.83,33.4493 -23.5,33.4493 -15.67,0 -23.5,-10.59 -23.5,-31.762 0,-9.3123 2.22,-16.7263 6.67,-22.2342 4.44,-5.496 10.05,-8.25 16.83,-8.25 z m 22.66,-6.7812 c -1.99,-4.6563 -5.55,-8.2891 -10.7,-10.9063 -5.15,-2.6054 -11.12,-3.9179 -17.89,-3.9179 -8.61,0 -15.85,1.5156 -21.71,4.5508 -5.86,3.039 -10.58,7.0234 -14.19,11.9648 -3.59,4.9414 -6.21,10.6641 -7.83,17.1563 -1.62,6.4843 -2.43,13.125 -2.43,19.9027 0,8.046 1.2,15.421 3.59,22.129 2.41,6.699 5.65,12.414 9.75,17.152 4.09,4.723 8.89,8.394 14.4,11.004 5.5,2.605 11.43,3.918 17.78,3.918 12.99,0 22.73,-5.227 29.23,-15.664 v 12.91 h 27.52 V 48.2813 c 0,-7.9102 -1.34,-14.8633 -4.03,-20.8594 -2.67,-5.9961 -6.34,-11.0156 -11,-15.0313 C 3936.06,8.36719 3930.55,5.29297 3924.2,3.17578 3917.85,1.0625 3911.07,0 3903.87,0 c -7.2,0 -13.9,1.02344 -20.12,3.07422 -6.21,2.04297 -11.53,4.94141 -15.98,8.67188 -4.45,3.75 -7.94,8.3047 -10.48,13.6641 -2.54,5.3593 -3.81,11.4375 -3.81,18.2109 h 25.62 c 0,-6.3555 2.09,-11.2578 6.25,-14.7148 4.16,-3.4571 9.7,-5.1836 16.62,-5.1836 7.33,0 13.55,2 18.63,6.0234 5.08,4.0234 7.63,9.5 7.63,16.4141 v 17.1484"
         style="fill:#5a3114;fill-opacity:1;fill-rule:nonzero;stroke:none"
         id="path98" /><path
         d="m 4034.94,49.3359 -22.87,46.7969 -13.34,-13.7695 V 49.3359 h -27.74 V 191.621 h 27.74 v -77.707 l 34.29,39.594 h 33.67 l -34.94,-38.324 34.09,-65.8481 h -30.9"
         style="fill:#5a3114;fill-opacity:1;fill-rule:nonzero;stroke:none"
         id="path100" /><path
         d="m 4134.24,111.582 c -0.14,3.816 -0.82,7.168 -2.01,10.059 -1.2,2.89 -2.79,5.293 -4.76,7.207 -1.99,1.906 -4.24,3.308 -6.78,4.226 -2.54,0.918 -5.16,1.379 -7.83,1.379 -5.51,0 -10.28,-2.012 -14.3,-6.035 -4.02,-4.023 -6.32,-9.629 -6.88,-16.836 z m -43.41,-17.3554 c 0.42,-7.9102 2.72,-14.1875 6.89,-18.8438 4.16,-4.6601 9.63,-6.9961 16.41,-6.9961 4.51,0 8.5,1.0274 11.96,3.0781 3.46,2.043 5.68,4.9024 6.67,8.5743 h 28.37 c -3.24,-10.7344 -8.89,-18.9844 -16.94,-24.7774 -8.04,-5.789 -17.64,-8.6797 -28.79,-8.6797 -34.73,0 -52.09,18.9141 -52.09,56.746 0,8.051 1.13,15.313 3.38,21.809 2.26,6.496 5.54,12.07 9.85,16.726 4.3,4.66 9.56,8.227 15.78,10.696 6.21,2.468 13.34,3.703 21.38,3.703 16.09,0 28.27,-5.16 36.53,-15.453 8.25,-10.313 12.38,-25.836 12.38,-46.5824 h -71.78"
         style="fill:#5a3114;fill-opacity:1;fill-rule:nonzero;stroke:none"
         id="path102" /><path
         d="M 4175.95,49.3359 V 153.508 h 27.52 V 49.3359 Z m 0,116.6721 v 25.613 h 27.52 v -25.613 h -27.52"
         style="fill:#5a3114;fill-opacity:1;fill-rule:nonzero;stroke:none"
         id="path104" /><path
         d="m 4278.43,117.938 h 25.62 V 88.2891 c 0,-5.4961 -0.81,-10.7618 -2.43,-15.7696 -1.63,-5.0078 -4.16,-9.4531 -7.62,-13.3398 -3.47,-3.8867 -7.84,-6.9531 -13.14,-9.207 -5.29,-2.2579 -11.61,-3.3907 -18.94,-3.3907 -7.63,0 -14.12,1.1328 -19.48,3.3907 -5.37,2.2539 -9.78,5.289 -13.24,9.0976 -3.45,3.8203 -5.96,8.2656 -7.52,13.3399 -1.55,5.0898 -2.32,10.4492 -2.32,16.0976 v 93.1642 h 27.1 v -28.164 h 57.59 v -19.477 h -57.59 V 91.2617 c 0,-6.6445 1.23,-11.75 3.7,-15.3554 2.47,-3.6016 6.53,-5.3985 12.18,-5.3985 5.51,0 9.56,1.7656 12.18,5.293 2.6,3.5234 3.91,8.5469 3.91,15.039 v 27.0982"
         style="fill:#5a3114;fill-opacity:1;fill-rule:nonzero;stroke:none"
         id="path106" /><path
         d="m 1259.18,603.328 h -59.45 v 149.031 h 61.2 c 53.62,0 93.25,-27.089 93.25,-73.046 0,-48.879 -40.8,-75.985 -95,-75.985 z M 780.336,370.059 H 560.863 l 228.532,253.289 z m 680.494,186.742 c 38.47,0 102.58,70.09 102.58,167.879 0,130.75 -124.73,246.773 -294.9,246.773 L 881.41,973.16 204.277,242.441 h 721.879 l -53.195,4.59 c 0,0 6.414,11.922 32.098,17.422 25.683,5.508 42.195,16.516 42.195,16.516 l -31.184,-5.508 c 0,0 1.828,13.758 7.336,18.348 5.504,4.578 5.504,4.578 5.504,4.578 v 26.601 c 0,0 -23.851,17.434 -29.355,40.364 -5.504,22.929 7.34,65.125 44.949,60.539 37.605,-4.582 43.109,-30.266 42.195,-52.289 -0.918,-22.008 -19.269,-38.512 -26.601,-46.778 -7.34,-8.25 -14.676,-16.511 -14.676,-16.511 l 10.09,4.589 c 0,0 -0.922,-16.515 2.75,-22.011 3.668,-5.508 28.437,0 44.948,22.011 16.51,22.012 22.01,28.438 22.01,28.438 h 37.65 l 0.94,1.308 c -2.68,-1.699 -22.53,9.207 -22.97,8.938 20.37,12.906 28.86,19.098 39.31,40.613 7.53,15.496 12.8,34.207 10.89,51.571 -1.06,9.668 -6.51,21.621 -15.05,24.003 -20.87,5.832 -46.95,-4.675 -58.5,-22.8 -6.98,-10.957 -8.13,-25.555 -3.54,-37.688 1.2,-3.164 2.91,-5.594 4.95,-8.23 0.01,-0.02 0.13,-0.125 0.17,-0.164 1.1,0.125 2.62,-0.375 3.76,-0.395 5.49,-0.047 10.96,1.762 15.71,4.414 10.55,5.91 17.95,15.82 19.7,27.832 0.93,6.379 0.35,13.098 -3.83,18.254 -0.18,0.227 -0.34,0.359 -0.5,0.496 -0.04,0 -0.09,0.012 -0.13,0.012 -2.58,0.351 -5.66,2.195 -7.73,3.664 -0.49,0.348 -3.81,2.637 -1.32,2.305 10.2,-1.399 22.22,-9.399 24.41,-19.828 3.52,-16.786 -7.49,-33.075 -22.32,-39.969 -12.58,-5.86 -26.13,-2.774 -36.53,6.191 -11.056,9.531 -12.442,28.731 -7.51,41.688 9.34,24.511 41.34,36.836 65.6,29.789 12.44,-3.617 25.47,-11.379 30.76,-23.711 7.26,-16.906 2.13,-38.617 -4.28,-54.934 -7.79,-19.824 -13.76,-39.015 -27.26,-53.359 h 49.35 l -36.7,11.008 c 0,0 100.9,124.746 125.67,138.504 24.77,13.757 38.52,11.003 38.52,11.003 0,0 -32.1,-8.25 -42.19,-30.261 l 0.92,-21.106 -26.6,-35.769 121.99,131.168 14.68,-13.762 -115.54,-128.871 h 1.45 l 22.36,17.891 -3.66,-14.676 -8.26,-9.223 v -46.734 h 9.63 v 15.593 h 20.18 V 311.23 h -20.18 v 12.84 h -38.07 v 3.672 h -13.27 c 9.8,-22.742 38.59,-58.66 123.35,-67.871 0,0 -32.11,4.582 -37.61,18.344 -5.51,13.758 37.61,7.332 66.96,14.676 29.35,7.332 36.69,59.621 0.91,88.054 -35.77,28.442 -54.11,47.696 -55.95,61.457 -1.83,13.758 26.6,39.446 54.12,51.368 27.52,11.921 77.05,23.847 88.06,15.589 11.01,-8.25 -10.09,-11.918 -27.52,-23.843 -17.43,-11.922 -43.54,-40.262 -6.42,-68.797 56.32,-43.289 58.87,-91.406 58.87,-113.43 0,-22.012 -36.85,-47.09 -36.85,-47.09 h 43.11 V 238.77 h 224.38 c 6.55,23.679 10.27,48.156 10.27,73.007 0,143.133 -112.48,245.024 -212.73,245.024"
         style="fill:#154122;fill-opacity:1;fill-rule:nonzero;stroke:none"
         id="path108" /><path
         d="m 1019.61,400.383 c 0.34,-0.305 0.66,-0.578 0.68,-0.559 0.24,0.281 -0.16,0.442 -0.68,0.559"
         style="fill:#154122;fill-opacity:1;fill-rule:nonzero;stroke:none"
         id="path110" /></g></g></svg>
